<svg width="81" height="72" viewBox="0 0 81 72" fill="none" xmlns="http://www.w3.org/2000/svg">
<path d="M13.6585 18.6846C13.2797 16.3035 15.1333 14.2 17.5443 14.2H76.2053C78.5259 14.2 80.3497 16.1509 80.1041 18.4583C79.0274 28.5728 75.5299 53.2 66.999 53.2C64.9988 53.2 28.9988 53.2 26.999 53.2C19.8998 53.2 15.2894 28.9349 13.6585 18.6846Z" fill="white"/>
<circle cx="31.9988" cy="65.2" r="6.5" fill="white"/>
<circle cx="61.4988" cy="65.2" r="6.5" fill="white"/>
<path d="M3 7.81877e-07C1.34315 -1.26931e-06 2.11441e-06 1.34314 6.32302e-08 3C-1.98795e-06 4.65685 1.34314 6 3 6L3 7.81877e-07ZM7.74497 3.00001L7.74497 6.00001L7.74497 3.00001ZM17.4657 23.1183L20.4091 22.5381L17.5561 8.06592L14.6128 8.64615L11.6694 9.22637L14.5224 23.6986L17.4657 23.1183ZM7.74497 3.00001L7.74498 6.65615e-06L3 7.81877e-07L3 3L3 6L7.74497 6.00001L7.74497 3.00001ZM14.6128 8.64615L17.5561 8.06592C16.6322 3.37894 12.5222 1.25703e-05 7.74498 6.65615e-06L7.74497 3.00001L7.74497 6.00001C9.65584 6.00001 11.2999 7.35158 11.6694 9.22637L14.6128 8.64615Z" fill="white"/>
</svg>
