<svg width="1280" height="717" viewBox="0 0 1280 717" fill="none" xmlns="http://www.w3.org/2000/svg">
<rect width="1280" height="717" fill="#D9D9D9"/>
<path d="M767 400.667L723.625 357.291C718.353 352.021 711.204 349.061 703.75 349.061C696.296 349.061 689.147 352.021 683.875 357.291L556.167 485M542.111 232H738.889C754.414 232 767 244.586 767 260.111V456.889C767 472.414 754.414 485 738.889 485H542.111C526.586 485 514 472.414 514 456.889V260.111C514 244.586 526.586 232 542.111 232ZM626.444 316.333C626.444 331.859 613.859 344.444 598.333 344.444C582.808 344.444 570.222 331.859 570.222 316.333C570.222 300.808 582.808 288.222 598.333 288.222C613.859 288.222 626.444 300.808 626.444 316.333Z" stroke="#9B9B9B" stroke-width="28.1111" stroke-linecap="round" stroke-linejoin="round"/>
</svg>
