<svg width="16" height="16" viewBox="0 0 16 16" fill="none" xmlns="http://www.w3.org/2000/svg">
<path d="M6.02273 15.6488V10.3679H4.38552V7.94119H6.02273V6.8956C6.02273 4.19229 7.24567 2.93956 9.89936 2.93956C10.1647 2.93956 10.5313 2.96736 10.8708 3.00773C11.1251 3.03389 11.3774 3.077 11.6259 3.13677V5.33714C11.4822 5.32374 11.3381 5.31579 11.1938 5.31332C11.0321 5.30912 10.8704 5.30714 10.7087 5.30736C10.2408 5.30736 9.87553 5.37089 9.60024 5.51185C9.41516 5.6047 9.25958 5.74722 9.1509 5.92347C8.98016 6.20141 8.9034 6.58192 8.9034 7.08288V7.94119H11.4969L11.2414 9.33288L11.0515 10.3679H8.9034V15.8241C12.8356 15.349 15.8824 12.0011 15.8824 7.94119C15.8824 3.55567 12.3267 0 7.94119 0C3.55567 0 0 3.55567 0 7.94119C0 11.6656 2.56368 14.7905 6.02273 15.6488Z" fill="white"/>
</svg>
