<svg width="16" height="16" viewBox="0 0 16 16" fill="none" xmlns="http://www.w3.org/2000/svg">
<path d="M4.76994 0.0555994C3.925 0.0954377 3.34801 0.230306 2.84354 0.428438C2.32154 0.631931 1.87902 0.90491 1.43875 1.34677C0.99854 1.78863 0.727348 2.23142 0.525378 2.75435C0.329892 3.2598 0.197406 3.83733 0.160083 4.68273C0.122759 5.52814 0.114487 5.79993 0.118656 7.95649C0.122759 10.1129 0.132289 10.3832 0.173252 11.2304C0.21362 12.0752 0.347958 12.652 0.546157 13.1566C0.749981 13.6787 1.02263 14.121 1.46469 14.5614C1.90668 15.0018 2.34914 15.2724 2.87326 15.4747C3.37832 15.6699 3.95597 15.803 4.80125 15.84C5.64652 15.877 5.91857 15.8856 8.07447 15.8815C10.2304 15.8774 10.5018 15.8678 11.3488 15.8276C12.1958 15.7874 12.7696 15.6521 13.2744 15.4548C13.7964 15.2506 14.2391 14.9784 14.6792 14.5362C15.1192 14.094 15.3902 13.6509 15.5921 13.1277C15.7877 12.6227 15.9207 12.0451 15.9574 11.2004C15.9944 10.3527 16.0032 10.0821 15.9991 7.92598C15.9949 5.76975 15.9852 5.49942 15.945 4.65256C15.9048 3.80569 15.7703 3.23062 15.5722 2.72569C15.3681 2.20363 15.0957 1.76163 14.6539 1.3209C14.2121 0.88016 13.7686 0.609365 13.2456 0.40799C12.7402 0.212438 12.1629 0.0792245 11.3177 0.042695C10.4724 0.00616553 10.2003 -0.00329772 8.04363 0.000937583C5.88694 0.00504053 5.61694 0.0143053 4.76994 0.0555994ZM4.86272 14.4114C4.08846 14.3777 3.66804 14.249 3.38785 14.1414C3.01686 13.9984 2.75255 13.8256 2.47335 13.5491C2.19409 13.2726 2.02262 13.0073 1.87776 12.6372C1.76897 12.357 1.63794 11.937 1.60174 11.1627C1.56236 10.3259 1.55409 10.0747 1.54946 7.9545C1.54483 5.8344 1.55297 5.5834 1.58963 4.74626C1.62272 3.97266 1.75216 3.55177 1.85963 3.27172C2.00257 2.90027 2.17476 2.63642 2.45191 2.35742C2.72906 2.07835 2.9935 1.90649 3.36402 1.76163C3.64395 1.65237 4.06384 1.52247 4.83777 1.48561C5.67524 1.4459 5.92618 1.43796 8.04602 1.43333C10.1658 1.4287 10.4175 1.43664 11.2552 1.47356C12.0289 1.50718 12.4499 1.63537 12.7297 1.74357C13.1008 1.88651 13.365 2.05817 13.644 2.33585C13.923 2.61339 14.095 2.87691 14.2399 3.24822C14.3493 3.52729 14.4792 3.94705 14.5158 4.72151C14.5556 5.55898 14.5647 5.81012 14.5684 7.92975C14.5723 10.0494 14.5648 10.3011 14.5281 11.138C14.4943 11.9123 14.3659 12.3328 14.2581 12.6133C14.1151 12.9842 13.9429 13.2486 13.6655 13.5275C13.3883 13.8064 13.1241 13.9782 12.7534 14.1231C12.4739 14.2322 12.0535 14.3624 11.2802 14.3993C10.4427 14.4387 10.1917 14.447 8.0711 14.4516C5.95047 14.4562 5.70019 14.4476 4.86272 14.4114ZM11.3366 3.6969C11.3369 3.88539 11.3931 4.06955 11.4981 4.2261C11.6031 4.38264 11.7521 4.50453 11.9264 4.57636C12.1007 4.64818 12.2923 4.66671 12.4771 4.6296C12.6619 4.59249 12.8316 4.50141 12.9646 4.36788C13.0976 4.23434 13.1881 4.06436 13.2245 3.87942C13.2609 3.69448 13.2417 3.50289 13.1692 3.32889C13.0967 3.15489 12.9743 3.00629 12.8173 2.90189C12.6604 2.79749 12.476 2.74198 12.2875 2.74237C12.0349 2.74289 11.7928 2.84374 11.6144 3.02274C11.4361 3.20174 11.3362 3.44423 11.3366 3.6969ZM3.98138 7.94914C3.98582 10.2013 5.81487 12.0228 8.06646 12.0185C10.3182 12.0142 12.141 10.1854 12.1367 7.93326C12.1324 5.68114 10.303 3.8591 8.05098 3.86353C5.79899 3.86797 3.97715 5.69729 3.98138 7.94914ZM5.41179 7.9463C5.41076 7.42276 5.56499 6.91068 5.85499 6.4748C6.14499 6.03892 6.55773 5.69882 7.04102 5.49752C7.52431 5.29621 8.05643 5.24274 8.57011 5.34385C9.08379 5.44497 9.55595 5.69614 9.92688 6.0656C10.2978 6.43506 10.5509 6.90622 10.654 7.41949C10.7572 7.93276 10.7058 8.4651 10.5064 8.94918C10.307 9.43326 9.9686 9.84735 9.53387 10.1391C9.09915 10.4308 8.58768 10.5871 8.06415 10.5881C7.71652 10.5889 7.37214 10.5211 7.0507 10.3887C6.72926 10.2564 6.43704 10.0619 6.19074 9.81662C5.94444 9.5713 5.74887 9.27986 5.61522 8.95894C5.48157 8.63803 5.41244 8.29393 5.41179 7.9463Z" fill="white"/>
</svg>
